<svg width="100" height="98" viewBox="0 0 100 98" fill="none" xmlns="http://www.w3.org/2000/svg">
<path d="M71.4286 0C58.2857 0 47.619 10.6667 47.619 23.8095C47.619 36.9524 58.2857 47.619 71.4286 47.619C84.5714 47.619 95.2381 36.9524 95.2381 23.8095C95.2381 10.6667 84.5714 0 71.4286 0ZM71.4286 38.0952C63.5238 38.0952 57.1429 31.7143 57.1429 23.8095C57.1429 15.9048 63.5238 9.52381 71.4286 9.52381C79.3333 9.52381 85.7143 15.9048 85.7143 23.8095C85.7143 31.7143 79.3333 38.0952 71.4286 38.0952ZM85.7143 66.6667H76.1905C76.1905 60.9524 72.619 55.8095 67.2857 53.8095L37.9524 42.8571H0V95.2381H28.5714V88.3809L61.9048 97.619L100 85.7143V80.9524C100 73.0476 93.619 66.6667 85.7143 66.6667ZM19.0476 85.7143H9.52381V52.3809H19.0476V85.7143ZM61.7619 87.6667L28.5714 78.5714V52.3809H36.2381L63.9524 62.7143C65.5714 63.3333 66.6667 64.9048 66.6667 66.6667C66.6667 66.6667 57.1429 66.4286 55.7143 65.9524L44.381 62.1905L41.381 71.2381L52.7143 75C55.1429 75.8095 57.6667 76.1905 60.2381 76.1905H85.7143C87.5714 76.1905 89.2381 77.3333 90 78.9048L61.7619 87.6667Z" fill="#FF9A02"/>
</svg>
