<svg width="50" height="50" viewBox="0 0 50 50" fill="none" xmlns="http://www.w3.org/2000/svg">
<path d="M25.3054 31.8229L36.7524 19.809C36.9434 19.6085 37.05 19.3422 37.05 19.0653C37.05 18.7883 36.9434 18.522 36.7524 18.3215L36.7394 18.3086C36.6468 18.2111 36.5353 18.1334 36.4117 18.0804C36.2881 18.0273 36.155 18 36.0205 18C35.886 18 35.7529 18.0273 35.6293 18.0804C35.5057 18.1334 35.3942 18.2111 35.3015 18.3086L24.5229 29.6219L13.7486 18.3086C13.6559 18.2111 13.5444 18.1334 13.4208 18.0804C13.2972 18.0273 13.1641 18 13.0296 18C12.8951 18 12.762 18.0273 12.6384 18.0804C12.5148 18.1334 12.4033 18.2111 12.3107 18.3086L12.2977 18.3215C12.1067 18.522 12 18.7883 12 19.0653C12 19.3422 12.1067 19.6085 12.2977 19.809L23.7447 31.8229C23.8453 31.9285 23.9664 32.0126 24.1006 32.0701C24.2347 32.1276 24.3791 32.1572 24.5251 32.1572C24.671 32.1572 24.8154 32.1276 24.9495 32.0701C25.0837 32.0126 25.2048 31.9285 25.3054 31.8229Z" fill="#FF9A02"/>
<circle cx="25" cy="25" r="24.5" stroke="#FF9A02"/>
</svg>
