<svg width="300" height="300" viewBox="0 0 300 300" fill="none" xmlns="http://www.w3.org/2000/svg">
<g clip-path="url(#clip0_573_191)">
<path d="M262.5 0H37.5C16.7893 0 0 16.7893 0 37.5V262.5C0 283.211 16.7893 300 37.5 300H262.5C283.211 300 300 283.211 300 262.5V37.5C300 16.7893 283.211 0 262.5 0Z" fill="white"/>
<path d="M129.878 125.64V117.48C127.08 117.097 124.238 116.857 121.335 116.857C86.3851 116.857 57.9526 145.29 57.9526 180.24C57.9526 201.682 68.6701 220.657 85.0126 232.132C74.4601 220.807 67.9876 205.635 67.9876 188.977C67.9876 154.53 95.6176 126.435 129.878 125.632V125.64Z" fill="#25F4EE"/>
<path d="M131.377 217.935C146.97 217.935 159.69 205.53 160.267 190.08L160.32 52.0725H185.535C185.01 49.2375 184.725 46.32 184.725 43.335H150.285L150.232 181.342C149.655 196.8 136.935 209.197 121.342 209.197C116.497 209.197 111.93 207.982 107.917 205.875C113.182 213.165 121.725 217.942 131.385 217.942L131.377 217.935Z" fill="#25F4EE"/>
<path d="M232.635 98.9099V91.2374C223.02 91.2374 214.057 88.3799 206.542 83.4824C213.232 91.1624 222.322 96.7049 232.635 98.9099Z" fill="#25F4EE"/>
<path d="M206.543 83.4749C199.215 75.0599 194.76 64.0724 194.76 52.0649H185.535C187.965 65.1824 195.75 76.4399 206.543 83.4749Z" fill="#FE2C55"/>
<path d="M121.343 151.297C105.383 151.297 92.3926 164.28 92.3926 180.247C92.3926 191.362 98.7001 201.022 107.91 205.867C104.475 201.112 102.428 195.285 102.428 188.985C102.428 173.025 115.418 160.035 131.378 160.035C134.355 160.035 137.213 160.53 139.92 161.37V126.217C137.123 125.835 134.28 125.595 131.378 125.595C130.875 125.595 130.38 125.625 129.878 125.632V152.632C127.178 151.785 124.313 151.297 121.335 151.297H121.343Z" fill="#FE2C55"/>
<path d="M232.635 98.9102V125.678C214.778 125.678 198.233 119.963 184.725 110.273V180.255C184.725 215.205 156.293 243.638 121.343 243.638C107.835 243.638 95.31 239.378 85.02 232.148C96.6 244.575 113.093 252.375 131.385 252.375C166.335 252.375 194.768 223.943 194.768 188.993V119.01C208.275 128.708 224.82 134.415 242.678 134.415V99.9752C239.235 99.9752 235.875 99.6002 232.643 98.9102H232.635Z" fill="#FE2C55"/>
<path d="M184.725 180.247V110.265C198.233 119.962 214.778 125.67 232.635 125.67V98.9024C222.323 96.6974 213.233 91.1549 206.543 83.4749C195.75 76.4399 187.965 65.1824 185.535 52.0649H160.32L160.268 190.072C159.69 205.53 146.97 217.927 131.378 217.927C121.718 217.927 113.175 213.157 107.91 205.86C98.6926 201.007 92.3926 191.355 92.3926 180.24C92.3926 164.28 105.383 151.29 121.343 151.29C124.32 151.29 127.178 151.785 129.885 152.625V125.625C95.6251 126.427 67.9951 154.522 67.9951 188.97C67.9951 205.635 74.4676 220.8 85.0201 232.125C95.3176 239.355 107.835 243.615 121.343 243.615C156.293 243.615 184.725 215.182 184.725 180.232V180.247Z" fill="black"/>
</g>
<defs>
<clipPath id="clip0_573_191">
<rect width="300" height="300" fill="white"/>
</clipPath>
</defs>
</svg>
